<svg xmlns="http://www.w3.org/2000/svg" xmlns:xlink="http://www.w3.org/1999/xlink" width="48" height="48">
  <defs>
    <linearGradient id="i" x1="4" x2="4" y1="44" y2="4" gradientUnits="userSpaceOnUse">
      <stop offset="0" stop-color="#2c3e50"/>
      <stop offset="1" stop-color="#34495e"/>
    </linearGradient>
    <linearGradient id="g">
      <stop offset="0" stop-color="#eff0f1"/>
      <stop offset="1" stop-color="#bdc3c7"/>
    </linearGradient>
    <linearGradient id="f">
      <stop offset="0" stop-color="#2c3e50"/>
      <stop offset="1" stop-color="#232629"/>
    </linearGradient>
    <linearGradient id="c">
      <stop offset="0" stop-color="#ffdf2a"/>
      <stop offset="1" stop-color="#cad87f"/>
    </linearGradient>
    <linearGradient id="b">
      <stop offset="0" stop-color="#444487"/>
      <stop offset="1" stop-color="#4848cf"/>
    </linearGradient>
    <linearGradient id="a">
      <stop offset="0" stop-color="#575793" stop-opacity=".18434343"/>
      <stop offset="1" stop-color="#afafe9"/>
    </linearGradient>
    <linearGradient id="k" x1="35.867348" x2="23.692261" y1="-126.48492" y2="-212.89729" gradientTransform="translate(17.035194 83.343678) scale(.33343)" gradientUnits="userSpaceOnUse" xlink:href="#d"/>
    <linearGradient id="l" x1="34" x2="44" y1="19.008" y2="29.008" gradientTransform="matrix(.65572 0 0 .65572 5.5451603 10.956034)" gradientUnits="userSpaceOnUse" xlink:href="#e"/>
    <linearGradient id="p" x1="-24.895875" x2="-14.450316" y1="-171.37131" y2="-171.37131" gradientUnits="userSpaceOnUse" xlink:href="#g"/>
    <linearGradient id="m" x1="4" x2="4" y1="44" y2="4" gradientTransform="matrix(.65572 0 0 .65572 5.5451603 10.956034)" gradientUnits="userSpaceOnUse" xlink:href="#h"/>
    <linearGradient id="n" x1="6.7386131" x2="10.479671" y1="27.436798" y2="31.491991" gradientUnits="userSpaceOnUse" xlink:href="#e"/>
    <linearGradient id="o" x1="-20.339964" x2="-19.166439" y1="-165.86026" y2="-191.25737" gradientUnits="userSpaceOnUse" xlink:href="#f"/>
    <linearGradient id="j" x1="35.867348" x2="23.692261" y1="-126.48492" y2="-212.89729" gradientTransform="translate(17.057291 83.970759) scale(.33343)" gradientUnits="userSpaceOnUse" xlink:href="#i"/>
  </defs>
  <linearGradient id="e" x1="34" x2="44" y1="19.008" y2="29.008" gradientUnits="userSpaceOnUse">
    <stop offset="0" stop-color="#292c2f"/>
    <stop offset="1" stop-opacity="0"/>
  </linearGradient>
  <linearGradient id="d" x1="4" x2="4" y1="44" y2="4" gradientUnits="userSpaceOnUse">
    <stop offset="0" stop-color="#197cf1"/>
    <stop offset="1" stop-color="#20bcfa"/>
  </linearGradient>
  <linearGradient id="h" x1="4" x2="4" y1="44" y2="4" gradientUnits="userSpaceOnUse" xlink:href="#d">
    <stop offset="0" stop-color="#dfe646"/>
    <stop offset="1" stop-color="#f5f9ab"/>
  </linearGradient>
  <path fill="url(#j)" stroke="#000" stroke-dasharray="0,9.14917008" stroke-width=".83174276" d="M34.986165 11.718869c-3.337835.07997-11.369807 1.412164-16.357071 2.724044-.116948.03077-.23383.06578-.350911.09733-1.5836.426834-3.172051.931962-4.575933 1.771205-2.654938 1.587126-5.4760111 3.735085-7.0054171 6.084595-1.5294073 2.349511-2.5479471 5.109497-3.0544643 6.384279-.5065159 1.274779-.4991043 1.059355-.7978747 1.116768-.2987713.05741-.9010257.386469-1.0540142 1.280697-.1529885.894232.145397 2.345503 1.2000138 3.261938 1.0546158.916431 2.8606626 1.292073 4.9063532 2.261712 2.0249042.959786 4.2962583 2.498337 10.3813363 3.400253.06246.0093.112179.02033.175455.02946 6.227308.897793 16.389278 1.131065 21.682213.645472 5.292936-.485598 5.702163-1.687216 5.097178-3.269622-.604987-1.582408-2.224211-3.544522-3.843374-5.507l-.263824-.887524c-.264335-.887576-.793099-2.66265-1.448469-4.862808-.655371-2.20016-1.438023-4.826202-1.500978-7.06305-.06295-2.236845-1.527501-3.795352-1.504024-5.004581.02348-1.209224 1.536083-2.069986-.565583-2.417062-.262709-.04338-.643777-.05753-1.120612-.0461z" image-rendering="optimizeSpeed"/>
  <path fill="url(#k)" stroke="#000" stroke-dasharray="0,9.14917008" stroke-width=".83174276" d="M34.964068 11.091788c-3.337835.07997-11.369807 1.412164-16.357071 2.724044-.116948.03077-.23383.06578-.350911.09733-1.5836.426834-3.172051.931962-4.575933 1.771205-2.654938 1.587126-5.4760112 3.735085-7.0054172 6.084595-1.5294073 2.349511-2.5479471 5.109497-3.0544643 6.384279-.5065159 1.274779-.4991043 1.059355-.7978747 1.116768-.2987713.05741-.9010257.386469-1.0540142 1.280697-.1529885.894232.145397 2.345503 1.2000138 3.261938 1.0546158.916431 2.8606626 1.292073 4.9063532 2.261712 2.0249042.959786 4.2962584 2.498337 10.3813364 3.400253.06246.0093.112179.02033.175455.02946 6.227308.897793 16.389278 1.131065 21.682213.645472 5.292936-.485598 5.702163-1.687216 5.097178-3.269622-.604987-1.582408-2.224211-3.544522-3.843374-5.507l-.263824-.887524c-.264335-.887576-.793099-2.66265-1.448469-4.862808-.655371-2.20016-1.438023-4.826202-1.500978-7.06305-.06295-2.236845.593819-4.082614.617296-5.291843.02348-1.209224-.585237-1.782724-2.686903-2.1298-.262709-.04338-.643777-.05753-1.120612-.0461z" image-rendering="optimizeSpeed"/>
  <path fill="url(#l)" fill-rule="evenodd" d="M33.469536 21.862579l-4.318555 6.142104 4.075284 4.075283a13.114345 13.114345 0 0 0 1.170454-5.386718 13.114345 13.114345 0 0 0-.891775-4.751328 13.114345 13.114345 0 0 0-.03541-.07934z" opacity=".2"/>
  <path fill="url(#m)" d="M21.363059 13.160115c-.974466.215782-1.917082.435027-2.756062.655717-.116948.03077-.23383.06578-.350911.09733-1.5836.426834-3.172051.931962-4.575933 1.771205-.33139.198105-.665438.404928-.998945.619858l-.0012.0012c-.321167.207002-.6425.421591-.960522.64291-.324375.22574-.645962.45867-.961804.69798-1.2633711.95724-2.4371696 2.016858-3.3515865 3.13771-.2286041.280214-.4404285.564569-.6339453.851663.8057683.231414 1.6712809.3822 2.2847649.350913.4014508-.0205 1.0783469-.539174 1.0783469-.539174h2.622869v.655717l.655669.655768V21.44751l.655718-.655717.655717-.655718h.655718v-.655717l.655717-.655717 1.311434-.655717.655718-.655718 1.311434-.655717v.655717l1.311435-.655717h-.655751v-.655717l-.655717-.655717h2.622869l-.655718.655717 1.967153.655717-.655718-1.311434V14.23462zm23.400909 2.971218c-.316763-.0058-.853503.177855-2.197678.814524-.880168.416893-2.555824.739758-4.408161 1.153909-.295467.06606-.592821.138421-.895208.210035-.200178.04736-.396734.09055-.598086.140877-.290024.07257-.576733.155734-.865752.235647-.199678.05515-.400612.104726-.598086.163929-.262997.07892-.513484.171698-.769698.258702-.219366.07445-.446074.141702-.658279.222842-.223915.08562-.443388.173831-.656998.267665-.216658.09515-.426704.195342-.630103.299684l.343226.575033c-.0095-.01149-.02661-.02089-.03329-.03329-.09908-.18298-.202264-.363684-.309931-.541738l-.712069.236928-1.311434.655718v.655717l-1.311435 1.311434-.655716 1.311435v2.622869l.655716 1.311435 1.311435.655717.655718.655717 3.092885-.51484 3.660234.108859c.507653-.02721 1.011519-.04952 1.509942-.06275.419459-.01059.834236-.01483 1.235874.0026.254448.01102.505502.027.749208.05507 1.084818.12495 2.048672.439729 2.730448.586559.681775.146816 1.079522.124893 1.415171-.01152.335648-.136421.607597-.386693.817085-1.413891.209515-1.027197.356667-2.83056.272788-4.811581-.08387-1.981018-.398103-4.139632-.691576-5.376369-.29348-1.23674-.567019-1.55186-.881121-1.68796-.07852-.03403-.159516-.05697-.265104-.05891zm-13.645834 1.913363v1.435662h1.109083c-.021-.03148-.03574-.0675-.0461-.106297-.07252-.271621.07733-.695988-.08453-.905454-.184981-.239391-.777296-.19766-.978453-.423911zm-18.319101.04354h.0397l-.08069.08069zm-2.663852 5.982144l-.6557169.655717h-.6557174l-.4264725-.426473v.0038c-.079667.428947-.1376341.861316-.1741749 1.296066l-.00128.01921 1.2576455.418788 1.3114342.655718.655718.655717.655717.655717h1.311434v1.31146l-.655717.655717-.655717 1.311434v.655718l.655717.655717.655717.655718.655718 1.311434.655717.655717 1.311433.655718v2.832903l-.07556.359876c.703223.145338 1.456193.284214 2.29501.408542.06246.0093.112178.02034.175454.02946 1.191937.171842 2.554223.311387 3.972725.434157l.189544-1.442065v-.655703l1.311434-.655718.655717-.655717.655718-2.622869.655717-.655717v-1.311436l-1.311434-.655717h-.655718l-1.311434-.655717h-.655717l-.655718-1.311435-.655716-.655717h-1.311435l-1.311434-1.311434h-1.311435l-1.967152-.655718-.655717 1.311435-1.311435-.655717h-.655717v-1.311435l-1.311435-.655718.655718-1.311434z"/>
  <path fill="url(#n)" d="M5.9811041 29.554802L10.436103 34.0098l2.399458-3.562535-3.9219219-3.921922-2.932535 3.029459z" opacity=".397" transform="translate(-.6918198 -.906643)"/>
  <g image-rendering="optimizeSpeed" transform="translate(14.2154 92.254904) scale(.37955)">
    <circle cx="-19.520628" cy="-171.44205" r="5.5638509" fill="url(#o)"/>
    <ellipse cx="-19.673096" cy="-171.37131" fill="url(#p)" rx="5.2227793" ry="3.8037889"/>
    <circle cx="-19.497053" cy="-171.27702" r="1.956778" fill="#232629"/>
  </g>
</svg>
