<svg xmlns="http://www.w3.org/2000/svg" xmlns:xlink="http://www.w3.org/1999/xlink" width="48" height="48"><defs><linearGradient id="c"><stop offset="0" stop-color="#ffdf2a"/><stop offset="1" stop-color="#cad87f"/></linearGradient><linearGradient id="b"><stop offset="0" stop-color="#444487"/><stop offset="1" stop-color="#4848cf"/></linearGradient><linearGradient id="a"><stop offset="0" stop-color="#575793" stop-opacity=".18434343"/><stop offset="1" stop-color="#afafe9"/></linearGradient><linearGradient id="l" x1="-23.895538" x2="-15.412446" y1="-167.37445" y2="-178.44366" gradientUnits="userSpaceOnUse" xlink:href="#a"/><linearGradient id="k" x1="-18.791785" x2="85.133621" y1="-173.08262" y2="-173.08262" gradientUnits="userSpaceOnUse" xlink:href="#b"/><linearGradient id="j" x1="-47.156303" x2="86.383591" y1="-173.07983" y2="-173.07983" gradientUnits="userSpaceOnUse" xlink:href="#c"/><linearGradient id="m" x1="-47.156303" x2="86.383591" y1="-173.07983" y2="-173.07983" gradientUnits="userSpaceOnUse" xlink:href="#c"/><linearGradient id="i" x1="69.137062" x2="86.383591" y1="-172.27965" y2="-173.07983" gradientUnits="userSpaceOnUse" xlink:href="#c"/><linearGradient id="h" x1="-23.895538" x2="-15.412446" y1="-167.37445" y2="-178.44366" gradientUnits="userSpaceOnUse" xlink:href="#a"/></defs><linearGradient id="f" x1="9" x2="38" y1="9" y2="38" gradientUnits="userSpaceOnUse" xlink:href="#d"/><linearGradient id="d" x1="34" x2="44" y1="19.008" y2="29.008" gradientUnits="userSpaceOnUse"><stop offset="0" stop-color="#292c2f"/><stop offset="1" stop-opacity="0"/></linearGradient><linearGradient id="e" x1="4" x2="4" y1="44" y2="4" gradientUnits="userSpaceOnUse"><stop offset="0" stop-color="#197cf1"/><stop offset="1" stop-color="#20bcfa"/></linearGradient><linearGradient id="g" x1="4" x2="4" y1="44" y2="4" gradientUnits="userSpaceOnUse"><stop offset="0" stop-color="#54d883"/><stop offset="1" stop-color="#abf9c7"/></linearGradient><circle cx="24" cy="24" r="20" fill="url(#e)"/><path fill="url(#d)" fill-rule="evenodd" d="M42.586 16.633L36 26l6.215 6.215A20 20 0 0 0 44 24a20 20 0 0 0-1.36-7.246 20 20 0 0 0-.054-.121z" opacity=".2"/><g><path fill="url(#f)" d="M24 4A20 20 0 0 0 4.1 22H7l3 3 2 1 10.969 17.95A20 20 0 0 0 24 44a20 20 0 0 0 20-20A20 20 0 0 0 24 4z" opacity=".2"/><path fill="url(#g)" d="M24 4a20 20 0 0 0-1.902.11 20 20 0 0 0-.254.03 20 20 0 0 0-3.219.637v-.04a20 20 0 0 0-9.7 6.14h.01a20 20 0 0 0-3.58 5.945L7 16h4v1l1 1v-2l1-1 1-1h1v-1l1-1 2-1 1-1 2-1v1l2-1h-1V8l-1-1h4l-1 1 3 1-1-2V5l-.947-.947A20 20 0 0 0 24 4zm15 6.81V13h1.691A20 20 0 0 0 39 10.81zm-27.938.067h.061L11 11l.063-.123zm30.024 2.762L40 14l-2 1v1l-2 2-1 2v4l1 2 2 1 1 1 4.717-.785a20 20 0 0 0 .002-.022 20 20 0 0 0 .209-1.752A20 20 0 0 0 44 24a20 20 0 0 0-.09-1.74 20 20 0 0 0-.097-.809 20 20 0 0 0-.19-1.234 20 20 0 0 0-.135-.598 20 20 0 0 0-.357-1.394 20 20 0 0 0-.145-.432 20 20 0 0 0-.539-1.473 20 20 0 0 0-.148-.33 20 20 0 0 0-.74-1.525 20 20 0 0 0-.473-.826zM7 20l-1 1H5l-.65-.65a20 20 0 0 0 0 .005 20 20 0 0 0-.266 1.977 20 20 0 0 0-.002.03L6 23l2 1 1 1 1 1h2v2l-1 1-1 2v1l1 1 1 1 1 2 1 1 2 1v4.32a20 20 0 0 0 .006.002 20 20 0 0 0 1.697.645 20 20 0 0 0 .192.068 20 20 0 0 0 1.513.408 20 20 0 0 0 .451.116 20 20 0 0 0 1.32.216 20 20 0 0 0 .68.104 20 20 0 0 0 1.15.072A20 20 0 0 0 24 44a20 20 0 0 0 1.018-.037L26 42v-1l2-1 1-1 1-4 1-1v-2l-2-1h-1l-2-1h-1l-1-2-1-1h-2l-2-2h-2l-3-1-1 2-2-1h-1v-2l-2-1 1-2z"/></g><path d="M4.051 23.5c-.004.17-.051.329-.051.5 0 11.08 8.92 20 20 20s20-8.92 20-20c0-.171-.047-.33-.051-.5-.03 1.206-.121 2.398-.354 3.541a19.89 19.89 0 0 1-5.441 10.113 19.95 19.95 0 0 1-6.355 4.279 19.817 19.817 0 0 1-3.758 1.162 20.204 20.204 0 0 1-4.04.404c-1.385 0-2.737-.139-4.04-.404a19.89 19.89 0 0 1-10.113-5.441 19.95 19.95 0 0 1-4.279-6.355 19.817 19.817 0 0 1-1.162-3.758c-.233-1.143-.323-2.335-.354-3.541" opacity=".2"/><g image-rendering="optimizeSpeed"><g fill="#939dac"><path d="M35.8004553 27.9062279c2.94787973-1.51222209 5.89539413-3.02425847 7.53179616-3.79934076 1.63640234-.77508228 1.96183357-.81336877 2.24862364-.68909902.28678976.1242667.53586233.41165895.8038212 1.54086694.26795857 1.12920494.55503085 3.10043569.63161266 4.90920762.07658212 1.80877497-.05737859 3.45457661-.24865548 4.39246174-.1912772.93788512-.44004381 1.16751579-.74650807 1.29207476-.30646426.12455592-.66965743.14367177-1.29215148.00962033-.62249435-.13406361-1.50214753-.42090787-2.49264553-.53499407-.9904977-.1140862-2.0907369-.0551099-3.19152838.00389685"/><path stroke="#000" stroke-dasharray="0 27.43937063" stroke-width=".7594219997856" d="M40.55037668 34.85176792c-.24135103-.81040352-.72395051-2.43086959-1.32233801-4.43972924-.5983875-2.00885964-1.31255268-4.40607938-1.37003326-6.44843666-.05748088-2.04235729.5415639-3.72763884.5630002-4.8317274.02143569-1.10408552-.53472068-1.62738297-2.45365152-1.94428164-1.91893114-.3169017-5.19713355-.42719762-9.049918.27917235-3.85278446.70636692-8.26678838 2.22712858-11.40633262 3.871475-3.13954417 1.64434641-5.00013317 3.41084367-6.39656145 5.5560685-1.39642798 2.14522484-2.32632275 4.66474764-2.78879868 5.8286893-.46247623 1.1639386-.45544578.96754984-.72823917 1.01997153-.2727934.05242473-.8228783.35280138-.96256463 1.1692785-.13968664.81648016.13319382 2.14122448 1.09611313 2.97797737.9629193.83674984 2.61165728 1.17981216 4.47947918 2.06514469 1.8678219.88532948 3.95272328 2.31225027 9.63857956 3.13197881 5.68585622.8197316 14.9649388 1.03185996 19.79766416.58848739 4.83272536-.44337561 5.20619463-1.54068428 4.6538109-2.98550315-.55238344-1.44482191-2.030478-3.23631681-3.50885844-5.02816182-3e-7 0 0 0-.24135135-.81040353z"/><path d="M32.16753292 16.94339786c-1.5410152.02109776-3.32343046.17007593-5.24982253.52325787-3.85278446.70636996-8.26688282 2.22716816-11.406427 3.87151457-1.00467763.52620486-1.87717797 1.06544284-2.6466144 1.62507227-.04134643.80391588.03834068 1.53335638.17481547 2.02048929.28441086 1.01517354.79855377.98777995 2.09778837 1.00132452 1.29923478.01354763 3.38351573.06781422 5.18322608 2.01632759 1.79971024 1.94851336 3.3159193 5.7926039 4.37158166 9.69037955.57314813 2.11620857 1.0134842 4.24503013 1.7529137 6.00973423 4.7899024.27245029 9.98146773.26985645 13.20155845-.02557304 4.2459879-.38954437 5.04947117-1.28406796 4.80743149-2.47536668-.82148-.80341356-2.11052618-1.54594806-2.89872956-2.6156957-.93442333-1.26819745-1.15296291-2.9922526-1.29982005-4.72358997-.26628383-.89410956-.56260564-1.88867245-1.02748818-3.44934023-.42279114-1.41936152-.89891942-3.03116624-1.1648434-4.57612792-.2486153-.30515333-.48538786-.61770154-.67607292-1.01500305-.48729183-1.01528924-.67726937-2.58506894-.1629237-4.0195703.3101209-.86491976.8736703-1.6811442.99835227-2.58715435-.29892935-.5090283-.97135628-.81425166-2.2553603-1.02629782-.95946542-.15844933-2.25855055-.26549381-3.79956545-.24438692z"/><path d="M32.16753292 16.94339786c-1.5410152.02109776-3.32343046.17007593-5.24982253.52325787-3.85278446.70636996-8.26688282 2.22716816-11.406427 3.87151457-.48761666.25539247-.94101842.51431644-1.36998423.77656187.52190767.64076903 1.6496798-.12135016 3.66161588-1.0286755 2.0702226-.93361381 5.0759238-2.01682382 7.91784285-2.67991446 2.84191906-.66309064 5.5220308-.90684737 7.7008099-.79856381 2.17588264.1081435 3.85181298.5670243 4.89424495.79737649-.23792029-.62671604-.91086903-.97971835-2.34871438-1.21717011-.95946541-.15844933-2.25855054-.26549381-3.79956544-.24438692z"/><path d="M15.23181605 21.48860675c-1.38251107.7457768-2.51077925 1.51863667-3.45706968 2.3409834-.4588674 1.65773574-1.42274904 3.94151469-1.67440388 5.75310878-.33505035 2.41193946.26359167 4.1410118.8187586 6.40966612.40726496 1.66426294 1.01839636 3.50342416 1.53528593 5.06668274.92279673.42330686 2.04581787.86351629 3.5516129 1.26295194-.19330726-1.4564546-.5347222-3.18319492-.8187796-4.80802667-.47847339-2.73690277-.29806473-5.10666193-.13534074-7.38422115.16272399-2.27756227.30764031-4.46351521.4415654-6.09977568.08556012-1.04534973-.0333585-1.88930873-.26162893-2.54136948z"/><g transform="matrix(.34655 0 0 .34655 19.28501115 90.68879042)"><circle cx="-19.520628" cy="-171.44205" r="5.5638509" stroke="url(#h)" stroke-dashoffset="24.94488144" stroke-linecap="round" stroke-linejoin="bevel" stroke-width="1.88976383" paint-order="markers stroke fill"/><ellipse cx="-19.673096" cy="-171.37131" rx="5.2227793" ry="3.8037889"/><circle cx="-19.497053" cy="-171.27702" r="1.956778"/></g><path d="M21.78722504 22.49886053c-.77134536.32462842-1.71871275 1.2313936-1.66457177 4.3925135.054141 3.1611199 1.10941105 8.57276163 1.84045248 11.19836383.73104156 2.6256022 1.13703913 2.46320122 1.08292444 1.42193708-.05411437-1.04126413-.56886464-2.9648042-.98838578-5.07598036-.41952114-2.11117616-.7443677-4.41217125-.85260909-6.0903441-.10824139-1.67817285.00004123-2.73392838.46021546-3.5728915.46017436-.83896008 1.27245933-1.4617123 1.38075688-1.90134633.10829756-.43963403-.48743734-.69688358-1.25878262-.37225212z"/><path d="M21.56597 22.50681557c-.77137444.32464974-1.71874195 1.10961113-1.66461013 4.20981849.05413182 3.10020431 1.10940164 8.51184604 1.84044289 11.13744824.73104155 2.6256022 1.13703912 2.46320122 1.08292444 1.42193709-.05411468-1.04126414-.56886495-2.96480421-.98838578-5.07598037-.4195212-2.11117616-.7443676-4.41217125-.85260903-6.0903441-.10824142-1.67817285.0000411-2.73392837.46021552-3.5728915.46017424-.83896313 1.2724592-1.46171534 1.38079573-1.84047945.10833683-.37876106-.4873993-.51415813-1.25877364-.1895084zM28.28895988 21.31385659c-.86612181.73061868-2.00296095 2.44941309-2.04351775 6.01657196-.04055677 3.56716193 1.0147133 8.97880365 1.74575472 11.60440585.73104156 2.6256022 1.13703913 2.46320122 1.08292444 1.42193709-.05411437-1.04126413-.56886464-2.9648042-.98838578-5.07598037-.41952114-2.11117616-.7443677-4.41217124-.75787254-6.49631914-.013505-2.08414789.28427243-3.95202398.83930014-5.19709306.5550278-1.24506603 1.36705887-1.8676234 1.47523252-2.30731223.10817395-.4396858-.48731405-.69682879-1.35343575.0337899z"/><path d="M28.06770317 21.3218025c-.86615373.73062781-2.00299487 2.32761844-2.04355764 5.83387695-.04056273 3.50625547 1.01470708 8.9178972 1.74574833 11.5434994.73104155 2.6256022 1.13703912 2.46320122 1.08292444 1.42193708-.05411468-1.04126413-.56886495-2.9648042-.98838578-5.07598036-.4195212-2.11117616-.7443676-4.41217125-.75787255-6.49631914-.013505-2.0841479.28427216-3.95202399.83930076-5.19709306.5550284-1.24507213 1.36705795-1.86762645 1.47527087-2.24641796.10821293-.37879151-.48727508-.51413073-1.35342843.21649708zM16.00599993 42.32199973c2.55976878 1.49176061 5.11944272 2.98346643 7.26535857 4.04033316 2.14591561 1.0568637 3.87800374 1.67888525 4.5526196 1.73146829.67461616.05258.29184622-.4641598-.1818651-1.15319794-.47371163-.68903814-.99538854-1.48481632-1.22628295-2.09677914-.2308944-.61196283-.10591896-.86683774.02916545-1.14232635"/></g><path fill="url(#i)" d="M56.581532-181.34381c9.682928-4.96721 19.364656-9.93381 24.739761-12.47973 5.375106-2.54592 6.444053-2.67168 7.386075-2.26349.942021.40818 1.760152 1.35218 2.640319 5.0613.880166 3.70911 1.823115 10.18403 2.074664 16.12532.25155 5.9413-.188472 11.34728-.816761 14.42796-.62829 3.08068-1.445416 3.83495-2.452062 4.24409-1.006646.40913-2.19963.47192-4.244342.0316-2.044713-.44036-4.934118-1.38256-8.187616-1.7573-3.253497-.37474-6.867463-.18102-10.483243.0128" transform="translate(18.33336916 82.3043037) scale(.30444)"/><path fill="url(#j)" stroke="#000" stroke-dasharray="0 27.43937063" stroke-width="2.49448824" d="M72.183643-158.52973c-.792768-2.66194-2.377967-7.9847-4.343496-14.58322-1.965529-6.59852-4.311354-14.47269-4.500161-21.18124-.188808-6.70855 1.77888-12.24421 1.849292-15.87082.07041-3.6266-1.756402-5.34548-8.059532-6.3864-6.303131-1.04093-17.071073-1.40322-29.72635.917-12.655277 2.32021-27.15399679 7.31547-37.466487 12.71667-10.31249 5.4012-16.423984 11.20363-21.010845 18.25007-4.58686 7.04644-7.641294 15.32234-9.160393 19.14555-1.5191 3.8232-1.496007 3.17812-2.392054 3.35031-.896047.1722-2.702916 1.15885-3.161745 3.84074-.45883 2.6819.437503 7.0333 3.600413 9.78179 3.16291 2.74848 8.578535 3.87534 14.713787 6.7834 6.135252 2.90805 12.983547 7.59507 31.6599321 10.28764 18.6763849 2.69258 49.1554739 3.38936 65.0295719 1.93301 15.874098-1.45636 17.100836-5.0607 15.286416-9.80651-1.814419-4.74582-6.66953-10.63036-11.52558-16.51605-.000001 0 0 0-.792769-2.66194z" transform="translate(18.33336916 82.3043037) scale(.30444)"/><path fill="url(#k)" d="M44.648438-217.35352c-5.061787.0693-10.916503.55865-17.244141 1.71875-12.655277 2.32022-27.15430701 7.3156-37.466797 12.7168-3.300074 1.72843-6.165984 3.49967-8.693359 5.33789-.135811 2.64063.125938 5.03663.574218 6.63672.934207 3.33455 2.623017 3.24457 6.890625 3.28906 4.2676086.0445 11.11386564.22275 17.025391 6.62305 5.911525 6.4003 10.891831 19.02702 14.359375 31.83008 1.882625 6.95113 3.329001 13.94369 5.757812 19.74023 15.733437.89492 32.78622.8864 43.363282-.084 13.946836-1.27954 16.586045-4.21779 15.791015-8.13086-2.698323-2.63898-6.932465-5.07799-9.521484-8.5918-3.069309-4.16566-3.787148-9.82868-4.269531-15.51562-.874665-2.93689-1.847996-6.20374-3.375-11.33008-1.388746-4.66219-2.952689-9.9565-3.826172-15.03125-.816629-1.00234-1.594358-2.02897-2.220703-3.33399-1.600612-3.33493-2.224633-8.4912-.535157-13.20312 1.018657-2.84101 2.869753-5.52207 3.279297-8.49805-.981896-1.67201-3.190623-2.67458-7.408203-3.37109-3.151565-.52046-7.418682-.87207-12.480468-.80274z" transform="translate(18.33336916 82.3043037) scale(.30444)"/><path fill="#383ddb" d="M31.9261817 16.13299322c-1.5410152.02109776-3.32343045.17007593-5.24982253.52325787-3.85278446.70636996-8.26688282 2.22716816-11.40642699 3.87151458-.48761666.25539246-.94101843.51431644-1.36998424.77656186.52190767.64076903 1.6496798-.12135016 3.66161588-1.0286755 2.07022261-.93361381 5.0759238-2.01682382 7.91784286-2.67991446 2.84191905-.66309064 5.5220308-.90684737 7.7008099-.79856381 2.17588264.10814351 3.85181298.5670243 4.89424495.7973765-.2379203-.62671604-.91086904-.97971836-2.34871438-1.21717012-.95946542-.15844933-2.25855054-.26549381-3.79956544-.24438692z"/><path fill="#162d50" d="M14.99046483 20.67820211c-1.38251107.7457768-2.51077925 1.51863667-3.45706968 2.3409834-.4588674 1.65773574-1.42274903 3.9415147-1.67440387 5.75310879-.33505035 2.41193945.26359166 4.14101178.8187586 6.40966611.40726495 1.66426295 1.01839635 3.50342417 1.53528593 5.06668274.92279672.42330686 2.04581786.86351629 3.5516129 1.26295194-.19330727-1.4564546-.5347222-3.18319492-.8187796-4.80802667-.4784734-2.73690276-.29806474-5.10666193-.13534075-7.38422115.162724-2.27756227.30764032-4.46351521.4415654-6.09977568.08556012-1.04534973-.0333585-1.88930873-.26162893-2.54136948z"/><g transform="matrix(.34655 0 0 .34655 19.04365993 89.87838578)"><circle cx="-19.520628" cy="-171.44205" r="5.5638509" fill="#0b0b28" stroke="url(#l)" stroke-dashoffset="24.94488144" stroke-linecap="round" stroke-linejoin="bevel" stroke-width="1.88976383" paint-order="markers stroke fill"/><ellipse cx="-19.673096" cy="-171.37131" fill="#afafe9" rx="5.2227793" ry="3.8037889"/><circle cx="-19.497053" cy="-171.27702" r="1.956778" fill="#000010"/></g><path fill="#b7b7c8" d="M21.54587383 21.6884559c-.77134536.32462841-1.71871276 1.23139358-1.66457177 4.39251349.05414098 3.1611199 1.10941104 8.57276163 1.84045248 11.19836383.73104155 2.6256022 1.13703912 2.46320122 1.08292444 1.42193709-.05411438-1.04126414-.56886465-2.96480421-.98838579-5.07598037-.41952114-2.11117616-.7443677-4.41217125-.85260908-6.0903441-.1082414-1.67817285.00004122-2.73392837.46021545-3.5728915.46017436-.83896008 1.27245933-1.4617123 1.38075689-1.90134633.10829756-.43963403-.48743735-.69688358-1.25878262-.37225212z"/><path fill="#f6f6f6" d="M21.32461879 21.69641094c-.77137444.32464973-1.71874196 1.10961112-1.66461013 4.20981848.05413182 3.10020432 1.10940164 8.51184604 1.84044288 11.13744824.73104156 2.6256022 1.13703913 2.46320122 1.08292444 1.42193709-.05411468-1.04126413-.56886494-2.9648042-.98838578-5.07598037-.4195212-2.11117616-.7443676-4.41217124-.85260902-6.0903441-.10824142-1.67817285.0000411-2.73392837.46021551-3.5728915.46017424-.83896312 1.2724592-1.46171534 1.38079573-1.84047945.10833684-.37876106-.48739929-.51415813-1.25877363-.1895084z"/><path fill="#b7b7c8" d="M28.04760867 20.50345195c-.86612182.73061868-2.00296095 2.44941309-2.04351776 6.01657197-.04055677 3.56716192 1.0147133 8.97880365 1.74575473 11.60440584.73104155 2.6256022 1.13703912 2.46320123 1.08292444 1.4219371-.05411438-1.04126414-.56886465-2.96480421-.98838579-5.07598037-.41952114-2.11117616-.7443677-4.41217125-.75787254-6.49631914-.013505-2.0841479.28427243-3.95202399.83930014-5.19709307.5550278-1.24506603 1.36705887-1.8676234 1.47523252-2.30731223.10817396-.43968579-.48731405-.69682879-1.35343574.0337899z"/><path fill="#f6f6f6" d="M27.82635195 20.51139786c-.86615372.73062781-2.00299487 2.32761844-2.04355763 5.83387696-.04056274 3.50625546 1.01470708 8.9178972 1.74574832 11.54349939.73104156 2.6256022 1.13703913 2.46320122 1.08292445 1.42193709-.05411469-1.04126414-.56886495-2.96480421-.9883858-5.07598037-.4195212-2.11117616-.7443676-4.41217125-.75787253-6.49631914-.013505-2.0841479.28427215-3.95202398.83930075-5.19709306.55502841-1.24507212 1.36705795-1.86762645 1.47527088-2.24641796.10821292-.37879151-.48727508-.51413073-1.35342844.21649709z"/><path fill="url(#m)" d="M-8.4375-133.99219c8.40809635 4.9 16.8158812 9.79982 23.864591 13.27132 7.048709 3.47149 12.738115 5.51465 14.954032 5.68737 2.215918.17271.95863-1.52463-.597374-3.78792-1.556005-2.26329-3.269562-4.87719-4.027983-6.88731-.758421-2.01012-.347913-2.84731.0958-3.75221" transform="translate(18.33336916 82.3043037) scale(.30444)"/></g></svg>
